<svg width="206" height="81" viewBox="0 0 206 81" fill="none" xmlns="http://www.w3.org/2000/svg">
<g filter="url(#filter0_dd_516_1473)">
<rect x="16" width="40" height="40" rx="20" fill="url(#paint0_linear_516_1473)"/>
<g filter="url(#filter1_di_516_1473)">
<path d="M41.6411 12.4137C28.1977 17.4038 28.1324 28.5354 27.8061 28.5354C27.5999 28.5354 25 26.3603 25 20.1547C25 11.1342 37.0729 6.0162 37.1382 6.08017C37.2035 6.14415 36.6814 7.8075 37.1382 7.99942C37.595 8.19135 41.119 5.88824 45.8177 5.24849C50.5163 4.60874 55.8675 5.37644 55.9981 5.63234C56.1286 5.88824 49.6027 9.087 48.0365 15.8684C46.8318 21.0836 42.9463 23.4174 43.0768 23.9292C43.2073 24.441 45.2956 23.9292 45.3608 24.2491C45.4261 24.569 42.9463 28.1516 38.9002 30.0709C34.8541 31.9901 31.5259 30.7746 31.1996 30.7106C30.8733 30.6466 30.7428 33.9733 30.7428 33.9733C30.7428 33.9733 30.547 34.933 29.6987 34.9969C28.8503 35.0609 28.9155 34.1013 28.9155 34.1013C28.9155 34.1013 29.3489 26.359 31.9827 21.882C35.6659 15.6214 41.6411 12.4137 41.6411 12.4137Z" fill="url(#paint1_linear_516_1473)"/>
</g>
</g>
<path d="M69.68 29V11.72H80.96V14.768H72.944V18.464H79.52V21.512H72.944V25.952H80.96V29H69.68ZM92.1883 29V22.88C92.1883 22.584 92.1723 22.208 92.1403 21.752C92.1083 21.288 92.0083 20.824 91.8403 20.36C91.6723 19.896 91.3963 19.508 91.0123 19.196C90.6363 18.884 90.1003 18.728 89.4043 18.728C89.1243 18.728 88.8243 18.772 88.5043 18.86C88.1843 18.948 87.8843 19.12 87.6043 19.376C87.3243 19.624 87.0923 19.992 86.9083 20.48C86.7323 20.968 86.6443 21.616 86.6443 22.424L84.7723 21.536C84.7723 20.512 84.9803 19.552 85.3963 18.656C85.8123 17.76 86.4363 17.036 87.2683 16.484C88.1083 15.932 89.1643 15.656 90.4363 15.656C91.4523 15.656 92.2803 15.828 92.9203 16.172C93.5603 16.516 94.0563 16.952 94.4083 17.48C94.7683 18.008 95.0243 18.56 95.1763 19.136C95.3283 19.704 95.4203 20.224 95.4523 20.696C95.4843 21.168 95.5003 21.512 95.5003 21.728V29H92.1883ZM83.3323 29V16.04H86.2363V20.336H86.6443V29H83.3323ZM103.678 35.12C102.942 35.12 102.242 35 101.578 34.76C100.914 34.528 100.318 34.2 99.7901 33.776C99.2701 33.36 98.8461 32.872 98.5181 32.312L101.542 30.848C101.75 31.232 102.046 31.524 102.43 31.724C102.822 31.924 103.246 32.024 103.702 32.024C104.19 32.024 104.65 31.94 105.082 31.772C105.514 31.612 105.858 31.368 106.114 31.04C106.378 30.72 106.502 30.32 106.486 29.84V26.072H106.894V16.04H109.75V29.888C109.75 30.208 109.734 30.508 109.702 30.788C109.678 31.076 109.63 31.36 109.558 31.64C109.35 32.432 108.962 33.084 108.394 33.596C107.834 34.108 107.146 34.488 106.33 34.736C105.514 34.992 104.63 35.12 103.678 35.12ZM103.39 29.36C102.198 29.36 101.154 29.06 100.258 28.46C99.3621 27.86 98.6621 27.044 98.1581 26.012C97.6621 24.98 97.4141 23.816 97.4141 22.52C97.4141 21.2 97.6661 20.028 98.1701 19.004C98.6821 17.972 99.3981 17.16 100.318 16.568C101.238 15.976 102.318 15.68 103.558 15.68C104.79 15.68 105.826 15.98 106.666 16.58C107.506 17.18 108.142 17.996 108.574 19.028C109.006 20.06 109.222 21.224 109.222 22.52C109.222 23.816 109.002 24.98 108.562 26.012C108.13 27.044 107.482 27.86 106.618 28.46C105.754 29.06 104.678 29.36 103.39 29.36ZM103.918 26.456C104.646 26.456 105.226 26.292 105.658 25.964C106.098 25.636 106.414 25.176 106.606 24.584C106.798 23.992 106.894 23.304 106.894 22.52C106.894 21.736 106.798 21.048 106.606 20.456C106.414 19.864 106.106 19.404 105.682 19.076C105.266 18.748 104.718 18.584 104.038 18.584C103.31 18.584 102.71 18.764 102.238 19.124C101.774 19.476 101.43 19.952 101.206 20.552C100.982 21.144 100.87 21.8 100.87 22.52C100.87 23.248 100.978 23.912 101.194 24.512C101.41 25.104 101.742 25.576 102.19 25.928C102.638 26.28 103.214 26.456 103.918 26.456ZM116.231 29.36C115.303 29.36 114.515 29.184 113.867 28.832C113.227 28.472 112.739 27.996 112.403 27.404C112.075 26.804 111.911 26.144 111.911 25.424C111.911 24.824 112.003 24.276 112.187 23.78C112.371 23.284 112.667 22.848 113.075 22.472C113.491 22.088 114.047 21.768 114.743 21.512C115.223 21.336 115.795 21.18 116.459 21.044C117.123 20.908 117.875 20.78 118.715 20.66C119.555 20.532 120.479 20.392 121.487 20.24L120.311 20.888C120.311 20.12 120.127 19.556 119.759 19.196C119.391 18.836 118.775 18.656 117.911 18.656C117.431 18.656 116.931 18.772 116.411 19.004C115.891 19.236 115.527 19.648 115.319 20.24L112.367 19.304C112.695 18.232 113.311 17.36 114.215 16.688C115.119 16.016 116.351 15.68 117.911 15.68C119.055 15.68 120.071 15.856 120.959 16.208C121.847 16.56 122.519 17.168 122.975 18.032C123.231 18.512 123.383 18.992 123.431 19.472C123.479 19.952 123.503 20.488 123.503 21.08V29H120.647V26.336L121.055 26.888C120.423 27.76 119.739 28.392 119.003 28.784C118.275 29.168 117.351 29.36 116.231 29.36ZM116.927 26.792C117.527 26.792 118.031 26.688 118.439 26.48C118.855 26.264 119.183 26.02 119.423 25.748C119.671 25.476 119.839 25.248 119.927 25.064C120.095 24.712 120.191 24.304 120.215 23.84C120.247 23.368 120.263 22.976 120.263 22.664L121.223 22.904C120.255 23.064 119.471 23.2 118.871 23.312C118.271 23.416 117.787 23.512 117.419 23.6C117.051 23.688 116.727 23.784 116.447 23.888C116.127 24.016 115.867 24.156 115.667 24.308C115.475 24.452 115.331 24.612 115.235 24.788C115.147 24.964 115.103 25.16 115.103 25.376C115.103 25.672 115.175 25.928 115.319 26.144C115.471 26.352 115.683 26.512 115.955 26.624C116.227 26.736 116.551 26.792 116.927 26.792ZM131.687 35.12C130.951 35.12 130.251 35 129.587 34.76C128.923 34.528 128.327 34.2 127.799 33.776C127.279 33.36 126.855 32.872 126.527 32.312L129.551 30.848C129.759 31.232 130.055 31.524 130.439 31.724C130.831 31.924 131.255 32.024 131.711 32.024C132.199 32.024 132.659 31.94 133.091 31.772C133.523 31.612 133.867 31.368 134.123 31.04C134.387 30.72 134.511 30.32 134.495 29.84V26.072H134.903V16.04H137.759V29.888C137.759 30.208 137.743 30.508 137.711 30.788C137.687 31.076 137.639 31.36 137.567 31.64C137.359 32.432 136.971 33.084 136.403 33.596C135.843 34.108 135.155 34.488 134.339 34.736C133.523 34.992 132.639 35.12 131.687 35.12ZM131.399 29.36C130.207 29.36 129.163 29.06 128.267 28.46C127.371 27.86 126.671 27.044 126.167 26.012C125.671 24.98 125.423 23.816 125.423 22.52C125.423 21.2 125.675 20.028 126.179 19.004C126.691 17.972 127.407 17.16 128.327 16.568C129.247 15.976 130.327 15.68 131.567 15.68C132.799 15.68 133.835 15.98 134.675 16.58C135.515 17.18 136.151 17.996 136.583 19.028C137.015 20.06 137.231 21.224 137.231 22.52C137.231 23.816 137.011 24.98 136.571 26.012C136.139 27.044 135.491 27.86 134.627 28.46C133.763 29.06 132.687 29.36 131.399 29.36ZM131.927 26.456C132.655 26.456 133.235 26.292 133.667 25.964C134.107 25.636 134.423 25.176 134.615 24.584C134.807 23.992 134.903 23.304 134.903 22.52C134.903 21.736 134.807 21.048 134.615 20.456C134.423 19.864 134.115 19.404 133.691 19.076C133.275 18.748 132.727 18.584 132.047 18.584C131.319 18.584 130.719 18.764 130.247 19.124C129.783 19.476 129.439 19.952 129.215 20.552C128.991 21.144 128.879 21.8 128.879 22.52C128.879 23.248 128.987 23.912 129.203 24.512C129.419 25.104 129.751 25.576 130.199 25.928C130.647 26.28 131.223 26.456 131.927 26.456ZM146.663 29.36C145.335 29.36 144.163 29.076 143.147 28.508C142.139 27.932 141.347 27.144 140.771 26.144C140.203 25.136 139.919 23.984 139.919 22.688C139.919 21.272 140.199 20.04 140.759 18.992C141.319 17.944 142.091 17.132 143.075 16.556C144.059 15.972 145.191 15.68 146.471 15.68C147.831 15.68 148.987 16 149.939 16.64C150.891 17.28 151.595 18.18 152.051 19.34C152.507 20.5 152.667 21.864 152.531 23.432H149.303V22.232C149.303 20.912 149.091 19.964 148.667 19.388C148.251 18.804 147.567 18.512 146.615 18.512C145.503 18.512 144.683 18.852 144.155 19.532C143.635 20.204 143.375 21.2 143.375 22.52C143.375 23.728 143.635 24.664 144.155 25.328C144.683 25.984 145.455 26.312 146.471 26.312C147.111 26.312 147.659 26.172 148.115 25.892C148.571 25.612 148.919 25.208 149.159 24.68L152.423 25.616C151.935 26.8 151.163 27.72 150.107 28.376C149.059 29.032 147.911 29.36 146.663 29.36ZM142.367 23.432V21.008H150.959V23.432H142.367ZM154.761 29V11.72H157.689L163.401 23.192L169.113 11.72H172.041V29H168.993V18.68L163.977 29H162.825L157.809 18.68V29H154.761ZM175.169 14.24V11.36H178.433V14.24H175.169ZM175.169 29V16.04H178.433V29H175.169ZM190.383 29V22.88C190.383 22.584 190.367 22.208 190.335 21.752C190.303 21.288 190.203 20.824 190.035 20.36C189.867 19.896 189.591 19.508 189.207 19.196C188.831 18.884 188.295 18.728 187.599 18.728C187.319 18.728 187.019 18.772 186.699 18.86C186.379 18.948 186.079 19.12 185.799 19.376C185.519 19.624 185.287 19.992 185.103 20.48C184.927 20.968 184.839 21.616 184.839 22.424L182.967 21.536C182.967 20.512 183.175 19.552 183.591 18.656C184.007 17.76 184.631 17.036 185.463 16.484C186.303 15.932 187.359 15.656 188.631 15.656C189.647 15.656 190.475 15.828 191.115 16.172C191.755 16.516 192.251 16.952 192.603 17.48C192.963 18.008 193.219 18.56 193.371 19.136C193.523 19.704 193.615 20.224 193.647 20.696C193.679 21.168 193.695 21.512 193.695 21.728V29H190.383ZM181.527 29V16.04H184.431V20.336H184.839V29H181.527ZM204.105 29C203.209 29.168 202.329 29.24 201.465 29.216C200.609 29.2 199.841 29.052 199.161 28.772C198.489 28.484 197.977 28.024 197.625 27.392C197.305 26.8 197.137 26.2 197.121 25.592C197.105 24.976 197.097 24.28 197.097 23.504V12.44H200.361V23.312C200.361 23.816 200.365 24.272 200.373 24.68C200.389 25.08 200.473 25.4 200.625 25.64C200.913 26.096 201.373 26.344 202.005 26.384C202.637 26.424 203.337 26.392 204.105 26.288V29ZM194.889 18.56V16.04H204.105V18.56H194.889Z" fill="#F5F5F5"/>
<defs>
<filter id="filter0_dd_516_1473" x="-1.86905" y="0" width="75.7381" height="80.2054" filterUnits="userSpaceOnUse" color-interpolation-filters="sRGB">
<feFlood flood-opacity="0" result="BackgroundImageFix"/>
<feColorMatrix in="SourceAlpha" type="matrix" values="0 0 0 0 0 0 0 0 0 0 0 0 0 0 0 0 0 0 127 0" result="hardAlpha"/>
<feOffset dy="12.5216"/>
<feGaussianBlur stdDeviation="5.00862"/>
<feColorMatrix type="matrix" values="0 0 0 0 0 0 0 0 0 0 0 0 0 0 0 0 0 0 0.02 0"/>
<feBlend mode="normal" in2="BackgroundImageFix" result="effect1_dropShadow_516_1473"/>
<feColorMatrix in="SourceAlpha" type="matrix" values="0 0 0 0 0 0 0 0 0 0 0 0 0 0 0 0 0 0 127 0" result="hardAlpha"/>
<feOffset dy="22.3363"/>
<feGaussianBlur stdDeviation="8.93452"/>
<feColorMatrix type="matrix" values="0 0 0 0 0 0 0 0 0 0 0 0 0 0 0 0 0 0 0.0238443 0"/>
<feBlend mode="normal" in2="effect1_dropShadow_516_1473" result="effect2_dropShadow_516_1473"/>
<feBlend mode="normal" in="SourceGraphic" in2="effect2_dropShadow_516_1473" result="shape"/>
</filter>
<filter id="filter1_di_516_1473" x="21" y="5" width="39" height="38" filterUnits="userSpaceOnUse" color-interpolation-filters="sRGB">
<feFlood flood-opacity="0" result="BackgroundImageFix"/>
<feColorMatrix in="SourceAlpha" type="matrix" values="0 0 0 0 0 0 0 0 0 0 0 0 0 0 0 0 0 0 127 0" result="hardAlpha"/>
<feOffset dy="4"/>
<feGaussianBlur stdDeviation="2"/>
<feComposite in2="hardAlpha" operator="out"/>
<feColorMatrix type="matrix" values="0 0 0 0 0 0 0 0 0 0 0 0 0 0 0 0 0 0 0.25 0"/>
<feBlend mode="normal" in2="BackgroundImageFix" result="effect1_dropShadow_516_1473"/>
<feBlend mode="normal" in="SourceGraphic" in2="effect1_dropShadow_516_1473" result="shape"/>
<feColorMatrix in="SourceAlpha" type="matrix" values="0 0 0 0 0 0 0 0 0 0 0 0 0 0 0 0 0 0 127 0" result="hardAlpha"/>
<feOffset dx="0.5" dy="0.2"/>
<feComposite in2="hardAlpha" operator="arithmetic" k2="-1" k3="1"/>
<feColorMatrix type="matrix" values="0 0 0 0 1 0 0 0 0 1 0 0 0 0 1 0 0 0 1 0"/>
<feBlend mode="normal" in2="shape" result="effect2_innerShadow_516_1473"/>
</filter>
<linearGradient id="paint0_linear_516_1473" x1="16" y1="5" x2="57" y2="38.5" gradientUnits="userSpaceOnUse">
<stop stop-color="#A769F8"/>
<stop offset="1" stop-color="#5216CB"/>
</linearGradient>
<linearGradient id="paint1_linear_516_1473" x1="40.5" y1="5" x2="40.5" y2="35" gradientUnits="userSpaceOnUse">
<stop stop-color="#18EDAD"/>
<stop offset="1" stop-color="#0FADD0"/>
</linearGradient>
</defs>
</svg>
