<svg width="150" height="35" viewBox="0 0 150 35" fill="none" xmlns="http://www.w3.org/2000/svg">
    <rect width="32" height="32" rx="16" fill="url(#paint0_linear_781_7773)"/>
    <g filter="url(#filter0_di_781_7773)">
        <path d="M20.5129 9.93097C9.75817 13.923 9.70596 22.8284 9.44492 22.8284C9.27995 22.8284 7.20001 21.0882 7.20001 16.1238C7.20001 8.90737 16.8584 4.81296 16.9106 4.86414C16.9628 4.91532 16.5451 6.246 16.9106 6.39954C17.276 6.55308 20.0952 4.7106 23.8541 4.19879C27.6131 3.68699 31.8941 4.30115 31.9985 4.50588C32.1029 4.7106 26.8822 7.2696 25.6292 12.6947C24.6654 16.8669 21.557 18.7339 21.6614 19.1434C21.7658 19.5528 23.4365 19.1434 23.4887 19.3993C23.5409 19.6552 21.557 22.5213 18.3202 24.0567C15.0833 25.5921 12.4207 24.6197 12.1597 24.5685C11.8987 24.5173 11.7943 27.1787 11.7943 27.1787C11.7943 27.1787 11.6376 27.9464 10.9589 27.9975C10.2802 28.0487 10.3324 27.281 10.3324 27.281C10.3324 27.281 10.6791 21.0872 12.7862 17.5056C15.7328 12.4971 20.5129 9.93097 20.5129 9.93097Z"
              fill="url(#paint1_linear_781_7773)"/>
    </g>
    <path d="M149.14 20.6081C148.423 20.7425 147.719 20.8001 147.028 20.7809C146.343 20.7681 145.729 20.6497 145.185 20.4257C144.647 20.1953 144.237 19.8273 143.956 19.3217C143.7 18.8481 143.565 18.3681 143.553 17.8817C143.54 17.3889 143.533 16.8321 143.533 16.2113V7.36011H146.145V16.0577C146.145 16.4609 146.148 16.8257 146.154 17.1521C146.167 17.4721 146.234 17.7281 146.356 17.9201C146.586 18.2849 146.954 18.4833 147.46 18.5153C147.965 18.5473 148.525 18.5217 149.14 18.4385V20.6081ZM141.767 12.2561V10.2401H149.14V12.2561H141.767Z"
          fill="#F5F5F5"/>
    <path d="M138.162 20.6081V15.7121C138.162 15.4753 138.15 15.1745 138.124 14.8097C138.098 14.4385 138.018 14.0673 137.884 13.6961C137.75 13.3249 137.529 13.0145 137.222 12.7649C136.921 12.5153 136.492 12.3905 135.935 12.3905C135.711 12.3905 135.471 12.4257 135.215 12.4961C134.959 12.5665 134.719 12.7041 134.495 12.9089C134.271 13.1073 134.086 13.4017 133.938 13.7921C133.798 14.1825 133.727 14.7009 133.727 15.3473L132.23 14.6369C132.23 13.8177 132.396 13.0497 132.729 12.3329C133.062 11.6161 133.561 11.0369 134.226 10.5953C134.898 10.1537 135.743 9.93286 136.761 9.93286C137.574 9.93286 138.236 10.0705 138.748 10.3457C139.26 10.6209 139.657 10.9697 139.938 11.3921C140.226 11.8145 140.431 12.2561 140.553 12.7169C140.674 13.1713 140.748 13.5873 140.774 13.9649C140.799 14.3425 140.812 14.6177 140.812 14.7905V20.6081H138.162ZM131.078 20.6081V10.2401H133.401V13.6769H133.727V20.6081H131.078Z"
          fill="#F5F5F5"/>
    <path d="M125.991 8.80009V6.49609H128.603V8.80009H125.991ZM125.991 20.6081V10.2401H128.603V20.6081H125.991Z"
          fill="#F5F5F5"/>
    <path d="M109.665 20.6082V6.78418H112.007L116.577 15.9618L121.146 6.78418H123.489V20.6082H121.05V12.3522L117.038 20.6082H116.116L112.103 12.3522V20.6082H109.665Z"
          fill="#F5F5F5"/>
    <path d="M103.187 20.8961C102.124 20.8961 101.187 20.6689 100.374 20.2145C99.5675 19.7537 98.9339 19.1233 98.4731 18.3233C98.0187 17.5169 97.7915 16.5953 97.7915 15.5585C97.7915 14.4257 98.0155 13.4401 98.4635 12.6017C98.9115 11.7633 99.5291 11.1137 100.316 10.6529C101.104 10.1857 102.009 9.95215 103.033 9.95215C104.121 9.95215 105.046 10.2081 105.808 10.7201C106.569 11.2321 107.132 11.9521 107.497 12.8801C107.862 13.8081 107.99 14.8993 107.881 16.1537H105.299V15.1937C105.299 14.1377 105.129 13.3793 104.79 12.9185C104.457 12.4513 103.91 12.2177 103.148 12.2177C102.259 12.2177 101.603 12.4897 101.18 13.0337C100.764 13.5713 100.556 14.3681 100.556 15.4241C100.556 16.3905 100.764 17.1393 101.18 17.6705C101.603 18.1953 102.22 18.4577 103.033 18.4577C103.545 18.4577 103.984 18.3457 104.348 18.1217C104.713 17.8977 104.992 17.5745 105.184 17.1521L107.795 17.9009C107.404 18.8481 106.787 19.5841 105.942 20.1089C105.104 20.6337 104.185 20.8961 103.187 20.8961ZM99.7499 16.1537V14.2145H106.624V16.1537H99.7499Z"
          fill="#F5F5F5"/>
    <path d="M91.2054 25.5041C90.6166 25.5041 90.0566 25.4081 89.5254 25.2161C88.9942 25.0305 88.5174 24.7681 88.095 24.4289C87.679 24.0961 87.3398 23.7057 87.0774 23.2577L89.4966 22.0865C89.663 22.3937 89.8998 22.6273 90.207 22.7873C90.5206 22.9473 90.8598 23.0273 91.2246 23.0273C91.615 23.0273 91.983 22.9601 92.3286 22.8257C92.6742 22.6977 92.9494 22.5025 93.1542 22.2401C93.3654 21.9841 93.4646 21.6641 93.4518 21.2801V18.2657H93.7782V10.2401H96.063V21.3185C96.063 21.5745 96.0502 21.8145 96.0246 22.0385C96.0054 22.2689 95.967 22.4961 95.9094 22.7201C95.743 23.3537 95.4326 23.8753 94.9782 24.2849C94.5302 24.6945 93.9798 24.9985 93.327 25.1969C92.6742 25.4017 91.967 25.5041 91.2054 25.5041ZM90.975 20.8961C90.0214 20.8961 89.1862 20.6561 88.4694 20.1761C87.7526 19.6961 87.1926 19.0433 86.7894 18.2177C86.3926 17.3921 86.1942 16.4609 86.1942 15.4241C86.1942 14.3681 86.3958 13.4305 86.799 12.6113C87.2086 11.7857 87.7814 11.1361 88.5174 10.6625C89.2534 10.1889 90.1174 9.95215 91.1094 9.95215C92.095 9.95215 92.9238 10.1921 93.5958 10.6721C94.2678 11.1521 94.7766 11.8049 95.1222 12.6305C95.4678 13.4561 95.6406 14.3873 95.6406 15.4241C95.6406 16.4609 95.4646 17.3921 95.1126 18.2177C94.767 19.0433 94.2486 19.6961 93.5574 20.1761C92.8662 20.6561 92.0054 20.8961 90.975 20.8961ZM91.3974 18.5729C91.9798 18.5729 92.4438 18.4417 92.7894 18.1793C93.1414 17.9169 93.3942 17.5489 93.5478 17.0753C93.7014 16.6017 93.7782 16.0513 93.7782 15.4241C93.7782 14.7969 93.7014 14.2465 93.5478 13.7729C93.3942 13.2993 93.1478 12.9313 92.8086 12.6689C92.4758 12.4065 92.0374 12.2753 91.4934 12.2753C90.911 12.2753 90.431 12.4193 90.0534 12.7073C89.6822 12.9889 89.407 13.3697 89.2278 13.8497C89.0486 14.3233 88.959 14.8481 88.959 15.4241C88.959 16.0065 89.0454 16.5377 89.2182 17.0177C89.391 17.4913 89.6566 17.8689 90.015 18.1505C90.3734 18.4321 90.8342 18.5729 91.3974 18.5729Z"
          fill="#F5F5F5"/>
    <path d="M78.8405 20.8961C78.0981 20.8961 77.4677 20.7553 76.9493 20.4737C76.4373 20.1857 76.0469 19.8049 75.7781 19.3313C75.5157 18.8513 75.3845 18.3233 75.3845 17.7473C75.3845 17.2673 75.4581 16.8289 75.6053 16.4321C75.7525 16.0353 75.9893 15.6865 76.3157 15.3857C76.6485 15.0785 77.0933 14.8225 77.6501 14.6177C78.0341 14.4769 78.4917 14.3521 79.0229 14.2433C79.5541 14.1345 80.1557 14.0321 80.8277 13.9361C81.4997 13.8337 82.2389 13.7217 83.0453 13.6001L82.1045 14.1185C82.1045 13.5041 81.9573 13.0529 81.6629 12.7649C81.3685 12.4769 80.8757 12.3329 80.1845 12.3329C79.8005 12.3329 79.4005 12.4257 78.9845 12.6113C78.5685 12.7969 78.2773 13.1265 78.1109 13.6001L75.7493 12.8513C76.0117 11.9937 76.5045 11.2961 77.2277 10.7585C77.9509 10.2209 78.9365 9.95215 80.1845 9.95215C81.0997 9.95215 81.9125 10.0929 82.6229 10.3745C83.3333 10.6561 83.8709 11.1425 84.2357 11.8337C84.4405 12.2177 84.5621 12.6017 84.6005 12.9857C84.6389 13.3697 84.6581 13.7985 84.6581 14.2721V20.6081H82.3733V18.4769L82.6997 18.9185C82.1941 19.6161 81.6469 20.1217 81.0581 20.4353C80.4757 20.7425 79.7365 20.8961 78.8405 20.8961ZM79.3973 18.8417C79.8773 18.8417 80.2805 18.7585 80.6069 18.5921C80.9397 18.4193 81.2021 18.2241 81.3941 18.0065C81.5925 17.7889 81.7269 17.6065 81.7973 17.4593C81.9317 17.1777 82.0085 16.8513 82.0277 16.4801C82.0533 16.1025 82.0661 15.7889 82.0661 15.5393L82.8341 15.7313C82.0597 15.8593 81.4325 15.9681 80.9525 16.0577C80.4725 16.1409 80.0853 16.2177 79.7909 16.2881C79.4965 16.3585 79.2373 16.4353 79.0133 16.5185C78.7573 16.6209 78.5493 16.7329 78.3893 16.8545C78.2357 16.9697 78.1205 17.0977 78.0437 17.2385C77.9733 17.3793 77.9381 17.5361 77.9381 17.7089C77.9381 17.9457 77.9957 18.1505 78.1109 18.3233C78.2325 18.4897 78.4021 18.6177 78.6197 18.7073C78.8373 18.7969 79.0965 18.8417 79.3973 18.8417Z"
          fill="#F5F5F5"/>
    <path d="M68.7984 25.5041C68.2096 25.5041 67.6496 25.4081 67.1184 25.2161C66.5872 25.0305 66.1104 24.7681 65.688 24.4289C65.272 24.0961 64.9328 23.7057 64.6704 23.2577L67.0896 22.0865C67.256 22.3937 67.4928 22.6273 67.8 22.7873C68.1136 22.9473 68.4528 23.0273 68.8176 23.0273C69.208 23.0273 69.576 22.9601 69.9216 22.8257C70.2672 22.6977 70.5424 22.5025 70.7472 22.2401C70.9584 21.9841 71.0576 21.6641 71.0448 21.2801V18.2657H71.3712V10.2401H73.656V21.3185C73.656 21.5745 73.6432 21.8145 73.6176 22.0385C73.5984 22.2689 73.56 22.4961 73.5024 22.7201C73.336 23.3537 73.0256 23.8753 72.5712 24.2849C72.1232 24.6945 71.5728 24.9985 70.92 25.1969C70.2672 25.4017 69.56 25.5041 68.7984 25.5041ZM68.568 20.8961C67.6144 20.8961 66.7792 20.6561 66.0624 20.1761C65.3456 19.6961 64.7856 19.0433 64.3824 18.2177C63.9856 17.3921 63.7872 16.4609 63.7872 15.4241C63.7872 14.3681 63.9888 13.4305 64.392 12.6113C64.8016 11.7857 65.3744 11.1361 66.1104 10.6625C66.8464 10.1889 67.7104 9.95215 68.7024 9.95215C69.688 9.95215 70.5168 10.1921 71.1888 10.6721C71.8608 11.1521 72.3696 11.8049 72.7152 12.6305C73.0608 13.4561 73.2336 14.3873 73.2336 15.4241C73.2336 16.4609 73.0576 17.3921 72.7056 18.2177C72.36 19.0433 71.8416 19.6961 71.1504 20.1761C70.4592 20.6561 69.5984 20.8961 68.568 20.8961ZM68.9904 18.5729C69.5728 18.5729 70.0368 18.4417 70.3824 18.1793C70.7344 17.9169 70.9872 17.5489 71.1408 17.0753C71.2944 16.6017 71.3712 16.0513 71.3712 15.4241C71.3712 14.7969 71.2944 14.2465 71.1408 13.7729C70.9872 13.2993 70.7408 12.9313 70.4016 12.6689C70.0688 12.4065 69.6304 12.2753 69.0864 12.2753C68.504 12.2753 68.024 12.4193 67.6464 12.7073C67.2752 12.9889 67 13.3697 66.8208 13.8497C66.6416 14.3233 66.552 14.8481 66.552 15.4241C66.552 16.0065 66.6384 16.5377 66.8112 17.0177C66.984 17.4913 67.2496 17.8689 67.608 18.1505C67.9664 18.4321 68.4272 18.5729 68.9904 18.5729Z"
          fill="#F5F5F5"/>
    <path d="M59.6066 20.6081V15.7121C59.6066 15.4753 59.5938 15.1745 59.5682 14.8097C59.5426 14.4385 59.4626 14.0673 59.3282 13.6961C59.1938 13.3249 58.973 13.0145 58.6658 12.7649C58.365 12.5153 57.9362 12.3905 57.3794 12.3905C57.1554 12.3905 56.9154 12.4257 56.6594 12.4961C56.4034 12.5665 56.1634 12.7041 55.9394 12.9089C55.7154 13.1073 55.5298 13.4017 55.3826 13.7921C55.2418 14.1825 55.1714 14.7009 55.1714 15.3473L53.6738 14.6369C53.6738 13.8177 53.8402 13.0497 54.173 12.3329C54.5058 11.6161 55.005 11.0369 55.6706 10.5953C56.3426 10.1537 57.1874 9.93286 58.205 9.93286C59.0178 9.93286 59.6802 10.0705 60.1922 10.3457C60.7042 10.6209 61.101 10.9697 61.3826 11.3921C61.6706 11.8145 61.8754 12.2561 61.997 12.7169C62.1186 13.1713 62.1922 13.5873 62.2178 13.9649C62.2434 14.3425 62.2562 14.6177 62.2562 14.7905V20.6081H59.6066ZM52.5218 20.6081V10.2401H54.845V13.6769H55.1714V20.6081H52.5218Z"
          fill="#F5F5F5"/>
    <path d="M41.6 20.6082V6.78418H50.624V9.22258H44.2112V12.1794H49.472V14.6178H44.2112V18.1698H50.624V20.6082H41.6Z"
          fill="#F5F5F5"/>
    <defs>
        <filter id="filter0_di_781_7773" x="4.00001" y="4" width="31.2" height="30.4" filterUnits="userSpaceOnUse"
                color-interpolation-filters="sRGB">
            <feFlood flood-opacity="0" result="BackgroundImageFix"/>
            <feColorMatrix in="SourceAlpha" type="matrix" values="0 0 0 0 0 0 0 0 0 0 0 0 0 0 0 0 0 0 127 0"
                           result="hardAlpha"/>
            <feOffset dy="3.2"/>
            <feGaussianBlur stdDeviation="1.6"/>
            <feComposite in2="hardAlpha" operator="out"/>
            <feColorMatrix type="matrix" values="0 0 0 0 0 0 0 0 0 0 0 0 0 0 0 0 0 0 0.25 0"/>
            <feBlend mode="normal" in2="BackgroundImageFix" result="effect1_dropShadow_781_7773"/>
            <feBlend mode="normal" in="SourceGraphic" in2="effect1_dropShadow_781_7773" result="shape"/>
            <feColorMatrix in="SourceAlpha" type="matrix" values="0 0 0 0 0 0 0 0 0 0 0 0 0 0 0 0 0 0 127 0"
                           result="hardAlpha"/>
            <feOffset dx="0.4" dy="0.16"/>
            <feComposite in2="hardAlpha" operator="arithmetic" k2="-1" k3="1"/>
            <feColorMatrix type="matrix" values="0 0 0 0 1 0 0 0 0 1 0 0 0 0 1 0 0 0 1 0"/>
            <feBlend mode="normal" in2="shape" result="effect2_innerShadow_781_7773"/>
        </filter>
        <linearGradient id="paint0_linear_781_7773" x1="3.99351e-07" y1="4" x2="32.8" y2="30.8"
                        gradientUnits="userSpaceOnUse">
            <stop stop-color="#A769F8"/>
            <stop offset="1" stop-color="#5216CB"/>
        </linearGradient>
        <linearGradient id="paint1_linear_781_7773" x1="19.6" y1="4" x2="19.6" y2="28" gradientUnits="userSpaceOnUse">
            <stop stop-color="#18EDAD"/>
            <stop offset="1" stop-color="#0FADD0"/>
        </linearGradient>
    </defs>
</svg>
